<svg xmlns="http://www.w3.org/2000/svg" viewBox="0 0 213.75 66.99"><defs><style>.cls-1{fill:#1d1d1b;}.cls-2{fill:#e62c2f;opacity:0.93;}</style></defs><g id="Camada_2" data-name="Camada 2"><g id="Camada_1-2" data-name="Camada 1"><path class="cls-1" d="M17.81,21.06V26.3H15.36a6,6,0,0,0-1.38-3,3.23,3.23,0,0,0-2.45-1,4.64,4.64,0,0,0-4.32,2.74c-1,1.82-1.46,4.53-1.46,8.12,0,3.34.44,5.86,1.33,7.58A4.23,4.23,0,0,0,11,43.33a4.49,4.49,0,0,0,2.15-.44,3.28,3.28,0,0,0,1.33-1.33,9.47,9.47,0,0,0,.86-2.49h2.47v5.47a33.46,33.46,0,0,1-3.63.69,26.77,26.77,0,0,1-3.41.22,12.35,12.35,0,0,1-6.14-1.36A8.09,8.09,0,0,1,1.13,40,18.32,18.32,0,0,1,0,33.07a16.18,16.18,0,0,1,1.33-6.82,9.93,9.93,0,0,1,3.91-4.47,11.63,11.63,0,0,1,6.18-1.57,23.68,23.68,0,0,1,3.3.2A22.19,22.19,0,0,1,17.81,21.06Z"/><path class="cls-1" d="M37,25a10,10,0,0,0-.12-1.89,1.6,1.6,0,0,0-.46-.85,3.24,3.24,0,0,0-1.34-.6V20.5h8v1.19a5.08,5.08,0,0,0-1,.39,1.39,1.39,0,0,0-.57.58,2.38,2.38,0,0,0-.26.93c0,.38-.05.86-.05,1.44V36.32a16.41,16.41,0,0,1-.36,3.75,7.05,7.05,0,0,1-1.12,2.54,5.91,5.91,0,0,1-1.89,1.66,8.69,8.69,0,0,1-2.54.91,16.85,16.85,0,0,1-3.16.27,15.06,15.06,0,0,1-4.34-.54,6.93,6.93,0,0,1-2.88-1.6,6.56,6.56,0,0,1-1.64-2.61,12.23,12.23,0,0,1-.53-4V25.05c0-.57,0-1-.05-1.43a2.59,2.59,0,0,0-.23-.94,1.47,1.47,0,0,0-.58-.58,4.45,4.45,0,0,0-1.08-.41V20.5h9.49v1.19a4.08,4.08,0,0,0-1.1.42,1.63,1.63,0,0,0-.53.55,2.52,2.52,0,0,0-.25.85,12,12,0,0,0-.07,1.54V37a17.12,17.12,0,0,0,.18,2.6,5.79,5.79,0,0,0,.66,2,3.28,3.28,0,0,0,1.32,1.29,4.69,4.69,0,0,0,2.19.45,4.26,4.26,0,0,0,2.75-.74,4,4,0,0,0,1.27-2.07,15.59,15.59,0,0,0,.37-4Z"/><path class="cls-1" d="M53.64,40.62c0,.42,0,.82,0,1.18a3.77,3.77,0,0,0,.14.88,1.55,1.55,0,0,0,.32.58,1.61,1.61,0,0,0,.57.41,5.27,5.27,0,0,0,.88.3v1.19H46.11V44a5.75,5.75,0,0,0,1-.39,1.35,1.35,0,0,0,.58-.58,2.44,2.44,0,0,0,.24-.94A14.19,14.19,0,0,0,48,40.62V25c0-.58,0-1.05,0-1.43a2.64,2.64,0,0,0-.23-.93,1.41,1.41,0,0,0-.58-.58,4.56,4.56,0,0,0-1.07-.4V20.5h9.48v1.19a4,4,0,0,0-1.09.42,1.57,1.57,0,0,0-.54.55,2.52,2.52,0,0,0-.25.85,12,12,0,0,0-.07,1.54Z"/><path class="cls-1" d="M68.44,20.5a22.36,22.36,0,0,1,5,.47,11.18,11.18,0,0,1,3.59,1.48,8.76,8.76,0,0,1,2.54,2.41,10.24,10.24,0,0,1,1.44,3.25,17.23,17.23,0,0,1,.47,4.18,17.88,17.88,0,0,1-.66,5.06,10.55,10.55,0,0,1-2,3.83A9.47,9.47,0,0,1,76,43.53a12.54,12.54,0,0,1-3.93,1.3,29.3,29.3,0,0,1-4.83.33H59V44a5.61,5.61,0,0,0,1.06-.39,1.35,1.35,0,0,0,.58-.58,2.86,2.86,0,0,0,.24-.94c0-.38,0-.86,0-1.44V25.05c0-.57,0-1,0-1.43a2.39,2.39,0,0,0-.24-.94,1.38,1.38,0,0,0-.57-.58A4.45,4.45,0,0,0,59,21.69V20.5ZM66.57,43a13,13,0,0,0,1.65.06,8.62,8.62,0,0,0,3.34-.58,5,5,0,0,0,1.72-1.19A8.08,8.08,0,0,0,75.05,38a18.73,18.73,0,0,0,.65-5.29,15.32,15.32,0,0,0-.92-5.7,6.93,6.93,0,0,0-2.59-3.34,7.24,7.24,0,0,0-4-1.08c-.74,0-1.28,0-1.61,0Z"/><path class="cls-1" d="M96.58,37.52H88.87l-.6,1.71a14.43,14.43,0,0,0-.41,1.4,6,6,0,0,0-.17,1.44A1.75,1.75,0,0,0,89.57,44v1.19H81.86V44A2.29,2.29,0,0,0,83,43.5,3.87,3.87,0,0,0,84,42.41a11.17,11.17,0,0,0,.89-2l7.53-20.07H97.2l6,20.23a13.65,13.65,0,0,0,.67,1.93,2.53,2.53,0,0,0,.7.92,3,3,0,0,0,1.21.52v1.19h-10V44a2.45,2.45,0,0,0,1.39-.53,1.52,1.52,0,0,0,.45-1.17A7.3,7.3,0,0,0,97.49,41c-.09-.46-.23-1-.42-1.73Zm-7-2.12h6.5L93.17,25.23Z"/><path class="cls-1" d="M152.18,20.18l1.48,24.76,0,.22h-5.18v-.22l3-1.23L151,36.35h-8.51l-.85,1.48c-3.11,5.37-3.19,5.74.07,7.14l0,.19h-5.18l0-.22L149.93,22.1l-.08-1.7.08-.22Zm-9.25,15.5H151l-.78-12.35h-.15Z"/><path class="cls-1" d="M181.3,20.18v.22l-1,1.22-5.85,23.54h-4.92v-.22l3.14-1.23,5.37-21.38h-.19l-11,16.87h-.18l-3.41-15.76h-.18l-3.7,14.84c-1.37,5.47-.78,5.51,2.77,6.66v.22h-5.25l5.85-23.24-.52-1.52,0-.22h2.41l3.4,15.62h.23l10.1-15.62Z"/><path class="cls-1" d="M200.69,28.06c-.85,3.48-4.4,6.55-11.32,6.55h-2.7l-2.3,9.25,2.89,1.08v.22h-8.55v-.22l3.55-1.08,5.52-22.24-3-1.22v-.22h9.51C199,20.18,201.84,23.59,200.69,28.06Zm-7.77-7.21h-2.81L186.85,34H189c5.29,0,8.36-1.67,9.47-6.07C199.36,24.14,197.58,20.85,192.92,20.85Z"/><path class="cls-1" d="M212.27,20.18l1.48,24.76,0,.22h-5.19v-.22l3-1.23-.44-7.36h-8.52l-.85,1.48c-3.11,5.37-3.18,5.74.08,7.14l0,.19h-5.18l0-.22L210,22.1l-.08-1.7.08-.22ZM203,35.68h8.07l-.78-12.35h-.15Z"/><polyline class="cls-2" points="149.26 19.41 178.39 19.39 163.58 0.12 123.45 0 92.15 45.93 61.37 46.1 82.83 66.92 122.17 66.99"/></g></g></svg>